<svg width="57" height="50" viewBox="0 0 57 50" fill="none" xmlns="http://www.w3.org/2000/svg">
<path d="M41.4319 16.7144C40.1053 16.2349 38.7046 15.9931 37.294 16.0002C32.7394 16.0002 29.5207 18.3015 29.5011 21.5951C29.4637 24.0158 31.7828 25.3802 33.5356 26.196C35.3364 27.0314 35.9385 27.5516 35.9296 28.2926C35.9207 29.4343 34.4903 29.9438 33.174 29.9438C31.3447 29.9438 30.3525 29.6944 28.8224 29.0532L28.2542 28.7842L27.6058 32.5889C28.7191 33.0431 30.7141 33.4421 32.7732 33.4796C37.6253 33.4796 40.7888 31.1978 40.8245 27.6798C40.8619 25.7507 39.6203 24.2865 36.9752 23.0788C35.3792 22.3004 34.3799 21.7696 34.3799 20.9716C34.3799 20.2662 35.2331 19.5252 37.0144 19.5252C38.1965 19.4956 39.3717 19.7134 40.4647 20.1647L40.9011 20.3589L41.5405 16.6948L41.4319 16.7144ZM53.2718 16.3154H49.7093C48.5961 16.3154 47.7696 16.6129 47.2779 17.7173L40.4308 33.2373H45.274L46.2502 30.6955L52.1586 30.7044C52.3064 31.2975 52.7232 33.2355 52.7232 33.2355H57L53.2718 16.3154ZM22.9425 16.1765H27.5542L24.6685 33.1055H20.0569L22.9425 16.1676V16.1765ZM11.2165 25.4996L11.6886 27.8562L16.2058 16.3154H21.0953L13.8207 33.2088H8.95256L4.96256 18.9036C4.93199 18.7848 4.87753 18.6734 4.8025 18.5763C4.72747 18.4792 4.63344 18.3985 4.52616 18.3389C3.09293 17.5935 1.57254 17.0293 0 16.6592L0.0552187 16.3047H7.4955C8.49834 16.3422 9.31416 16.6592 9.59203 17.7351L11.2165 25.5085V25.4996ZM47.5647 27.2345L49.4119 22.4946C49.3834 22.5391 49.7913 21.5202 50.0228 20.879L50.3381 22.3343L51.4069 27.2238H47.5647V27.2345Z" fill="white"/>
</svg>
