<svg width="50" height="50" viewBox="0 0 50 50" fill="none" xmlns="http://www.w3.org/2000/svg">
<path d="M11.1788 3.84615C5.09038 3.84615 0 8.93846 0 15.025V34.9769C0 41.0615 5.09231 46.1538 11.1788 46.1538H38.8231C44.9077 46.1538 50 41.0615 50 34.975V15.025C50 8.94038 44.9077 3.84615 38.8212 3.84615H11.1788ZM11.1788 7.69231H38.8231C42.7365 7.69231 46.1538 11.1096 46.1538 15.025V17.3077H34.6154C33.5481 17.3077 32.6923 16.4519 32.6923 15.3846C32.6923 14.3173 33.5481 13.4615 34.6154 13.4615C35.1254 13.4615 35.6146 13.2589 35.9752 12.8983C36.3359 12.5376 36.5385 12.0485 36.5385 11.5385C36.5385 11.0284 36.3359 10.5393 35.9752 10.1786C35.6146 9.81799 35.1254 9.61538 34.6154 9.61538C31.4519 9.61538 28.8462 12.2212 28.8462 15.3846C28.8462 17.8692 30.4692 19.9885 32.6923 20.7942V30.3481C30.3885 31.9135 28.8462 34.5404 28.8462 37.5C28.8462 39.275 29.4096 40.925 30.3481 42.3077H19.6538C20.626 40.8924 21.1487 39.2169 21.1538 37.5C21.1538 34.5423 19.6115 31.9135 17.3077 30.3481V20.7923C19.5308 19.9885 21.1538 17.8692 21.1538 15.3846C21.1538 12.2212 18.5481 9.61538 15.3846 9.61538H11.5385C11.4782 9.61255 11.4179 9.61255 11.3577 9.61538C11.2981 9.61261 11.2384 9.61261 11.1788 9.61538C10.6688 9.66307 10.1986 9.91142 9.87169 10.3058C9.54476 10.7002 9.38789 11.2082 9.43558 11.7183C9.48326 12.2283 9.73161 12.6985 10.126 13.0254C10.5203 13.3524 11.0284 13.5092 11.5385 13.4615H15.3846C16.4519 13.4615 17.3077 14.3173 17.3077 15.3846C17.3077 16.4519 16.4519 17.3077 15.3846 17.3077H3.84615V15.0231C3.84615 11.1096 7.26346 7.69231 11.1788 7.69231ZM3.84615 21.1538H13.4615V28.8462H3.84615V21.1538ZM36.5385 21.1538H46.1538V28.8462H36.5385V21.1538ZM3.84615 32.6923H12.5C15.075 32.6923 17.3077 34.925 17.3077 37.5C17.3077 40.075 15.075 42.3077 12.5 42.3077H11.1769C7.26346 42.3077 3.84615 38.8904 3.84615 34.975V32.6923ZM37.5 32.6923H46.1538V34.9769C46.1538 38.8904 42.7365 42.3077 38.8212 42.3077H37.5C34.925 42.3077 32.6923 40.075 32.6923 37.5C32.6923 34.925 34.925 32.6923 37.5 32.6923Z" fill="white"/>
</svg>
